<?xml version="1.0" standalone="no"?>
<!DOCTYPE svg PUBLIC "-//W3C//DTD SVG 20010904//EN"
 "http://www.w3.org/TR/2001/REC-SVG-20010904/DTD/svg10.dtd">
<svg version="1.0" xmlns="http://www.w3.org/2000/svg"
 width="512.000000pt" height="512.000000pt" viewBox="0 0 512.000000 512.000000"
 preserveAspectRatio="xMidYMid meet">
<metadata>
Created by potrace 1.11, written by Peter Selinger 2001-2013
</metadata>
<g transform="translate(0.000000,512.000000) scale(0.100000,-0.100000)"
fill="#000000" stroke="none">
<path d="M2455 5109 c-110 -24 -286 -121 -399 -221 -60 -52 -209 -198 -202
-198 2 0 -10 -15 -27 -34 -18 -19 -48 -55 -67 -81 -19 -26 -44 -56 -54 -68
-15 -18 -101 -147 -173 -263 -7 -10 -38 -66 -70 -124 -31 -58 -60 -106 -65
-108 -4 -2 -8 -10 -8 -18 0 -7 -9 -28 -19 -46 -11 -17 -18 -35 -15 -40 3 -4 1
-8 -3 -8 -5 0 -15 -16 -22 -36 -7 -20 -38 -62 -69 -93 -30 -31 -82 -87 -116
-126 -34 -38 -67 -74 -74 -78 -7 -5 -10 -12 -7 -18 4 -5 -1 -9 -9 -9 -9 0 -16
-5 -16 -11 0 -7 -11 -22 -26 -35 -14 -13 -21 -24 -17 -24 4 0 4 -4 -2 -8 -24
-17 -215 -286 -215 -302 0 -6 -4 -10 -10 -10 -5 0 -10 -4 -10 -8 0 -5 -23 -47
-50 -93 -28 -46 -58 -101 -67 -121 -9 -21 -20 -38 -25 -38 -4 0 -8 -9 -8 -20
0 -11 -4 -20 -10 -20 -5 0 -10 -5 -10 -11 0 -9 -14 -44 -55 -134 -19 -42 -38
-88 -40 -100 -2 -5 -13 -35 -25 -65 -32 -78 -97 -285 -90 -285 1 0 -3 -12 -9
-28 -6 -15 -13 -38 -15 -50 -2 -12 -12 -51 -21 -87 -9 -36 -18 -76 -21 -90 -3
-14 -7 -32 -9 -40 -5 -17 -12 -59 -19 -111 -3 -19 -8 -45 -11 -59 -3 -14 -8
-47 -10 -75 -3 -27 -7 -72 -11 -100 -10 -90 -9 -279 2 -330 18 -78 31 -102 62
-117 25 -13 34 -13 70 1 41 16 128 92 173 152 13 17 30 37 36 44 7 8 13 18 13
24 0 6 5 11 11 11 5 0 7 4 4 10 -3 5 -2 10 3 10 6 0 23 21 38 48 15 26 30 49
34 52 4 3 24 37 45 75 22 39 45 76 52 83 7 7 13 17 13 21 0 16 100 185 101
171 0 -8 2 -42 4 -75 10 -179 16 -240 24 -243 6 -2 8 -9 5 -16 -5 -12 12 -119
31 -201 8 -37 18 -74 25 -95 4 -14 13 -44 20 -67 7 -24 16 -43 19 -43 4 0 8
-12 9 -27 1 -15 7 -32 12 -37 6 -6 10 -18 10 -27 0 -10 3 -19 8 -21 4 -2 20
-30 37 -63 53 -108 144 -233 197 -273 33 -24 19 -30 -65 -25 -45 2 -86 4 -92
4 -8 0 -140 -9 -182 -13 -7 -1 -13 -6 -13 -11 0 -6 -3 -7 -6 -4 -7 7 -37 -28
-47 -54 -3 -9 0 -22 6 -28 6 -6 8 -11 4 -11 -3 0 0 -18 8 -40 8 -22 12 -40 9
-40 -2 0 0 -8 5 -17 23 -45 29 -131 11 -193 -7 -25 -13 -49 -14 -55 -1 -5 -5
-16 -10 -23 -4 -7 -10 -35 -13 -62 -5 -44 -2 -52 18 -69 13 -11 41 -24 62 -29
36 -10 358 -8 402 1 11 3 56 8 99 12 43 4 86 8 95 10 9 1 45 6 81 10 36 4 73
9 84 11 10 2 44 6 75 10 31 3 60 8 64 11 4 2 21 6 38 8 61 8 114 17 119 20 3
2 21 6 40 9 19 3 46 8 60 12 14 3 33 6 43 6 9 -1 17 3 17 8 0 4 8 7 18 5 9 -1
22 0 27 4 6 3 16 7 23 8 6 2 18 5 25 6 6 2 33 10 60 17 26 7 47 16 47 20 0 5
9 6 20 3 11 -3 20 0 20 6 0 6 3 10 8 9 4 -1 28 8 55 20 l47 22 48 -22 c26 -12
50 -21 55 -20 4 1 7 -3 7 -10 0 -6 3 -9 6 -6 3 4 22 0 41 -8 19 -9 49 -17 65
-19 16 -2 36 -9 44 -15 7 -7 21 -10 29 -6 8 3 15 1 15 -4 0 -6 3 -9 8 -8 4 1
25 -2 47 -7 22 -5 47 -9 55 -10 8 -1 22 -4 30 -8 14 -5 58 -14 125 -24 32 -5
58 -9 90 -16 11 -3 49 -8 85 -13 36 -4 67 -8 70 -9 6 -1 119 -15 170 -21 19
-2 55 -6 80 -9 143 -19 437 -26 496 -13 22 5 51 18 63 30 20 17 22 28 17 67
-3 25 -12 64 -20 86 -8 22 -15 48 -16 58 0 10 -3 16 -7 14 -5 -3 -8 24 -8 59
0 35 3 64 7 64 5 0 7 3 7 8 -1 4 0 9 1 12 2 5 7 29 13 52 1 7 6 18 9 24 4 6
10 30 14 53 12 73 -22 106 -116 113 -19 2 -38 8 -42 13 -5 7 -8 7 -8 0 0 -11
-50 -12 -68 -1 -7 4 -12 4 -12 -1 0 -4 -38 -8 -85 -8 -47 -1 -85 2 -85 5 0 4
12 18 28 32 40 37 82 86 82 98 0 5 4 10 8 10 5 0 15 12 23 28 8 15 22 36 32
46 9 11 17 24 17 28 0 5 11 25 24 46 12 20 24 42 26 47 1 6 10 28 20 50 22 48
35 87 32 98 -1 4 3 7 9 7 6 0 9 6 6 14 -3 8 -1 16 4 18 6 2 12 15 14 28 2 14
6 34 9 45 20 72 28 103 31 125 3 14 9 50 15 80 20 109 33 242 39 405 1 17 4
15 19 -10 22 -36 101 -181 116 -212 6 -13 14 -23 19 -23 4 0 7 -5 7 -10 0 -6
17 -37 37 -68 21 -31 42 -66 48 -77 28 -49 112 -156 173 -218 62 -63 104 -87
153 -87 21 0 59 31 62 50 2 8 5 20 9 25 21 34 27 228 13 383 -4 42 -9 89 -10
103 -1 14 -4 30 -6 35 -3 5 -4 19 -3 32 0 12 -1 22 -5 22 -5 0 -8 17 -14 105
-1 17 -5 32 -8 35 -4 3 -9 21 -12 40 -7 45 -84 347 -92 360 -3 5 -8 18 -10 27
-3 17 -43 133 -82 238 -10 28 -21 53 -26 56 -4 3 -9 16 -12 28 -5 26 -110 241
-155 316 -16 28 -32 57 -36 65 -11 23 -77 123 -91 138 -6 6 -15 21 -18 32 -3
11 -10 20 -15 20 -5 0 -12 9 -15 20 -3 11 -12 26 -19 32 -6 7 -25 31 -41 53
-16 22 -41 54 -55 71 -14 17 -37 46 -52 65 -29 37 -54 67 -99 117 -16 17 -27
32 -25 32 3 0 -30 35 -74 78 -69 70 -86 94 -147 218 -70 141 -125 243 -149
279 -8 11 -14 22 -14 25 0 4 108 6 239 6 271 0 276 1 259 62 -5 20 -18 46 -29
58 -10 11 -19 26 -19 33 0 7 -4 9 -10 6 -5 -3 -10 1 -10 9 0 9 -3 16 -7 16 -5
0 -22 14 -40 30 -18 17 -35 30 -39 30 -4 0 -14 8 -23 18 -9 9 -29 24 -46 32
-16 8 -32 17 -35 21 -5 5 -38 21 -142 68 -90 41 -252 83 -373 96 -33 4 -70 8
-81 10 -12 2 -48 29 -82 62 -70 67 -78 75 -153 131 -31 23 -61 42 -67 42 -7 0
-12 4 -12 9 0 15 -175 94 -235 107 -52 10 -178 12 -220 3z"/>
</g>
</svg>
